<svg width="1200" height="420" viewBox="0 0 1200 420" fill="none" xmlns="http://www.w3.org/2000/svg">
  <defs>
    <linearGradient id="bg" x1="70" y1="40" x2="1130" y2="380" gradientUnits="userSpaceOnUse">
      <stop stop-color="#08111F"/>
      <stop offset="1" stop-color="#172554"/>
    </linearGradient>
    <linearGradient id="shieldOuter" x1="120" y1="60" x2="340" y2="320" gradientUnits="userSpaceOnUse">
      <stop stop-color="#F8FAFC"/>
      <stop offset="1" stop-color="#94A3B8"/>
    </linearGradient>
    <linearGradient id="shieldInner" x1="150" y1="92" x2="300" y2="284" gradientUnits="userSpaceOnUse">
      <stop stop-color="#0F172A"/>
      <stop offset="1" stop-color="#1E293B"/>
    </linearGradient>
    <linearGradient id="lobsterMain" x1="0" y1="0" x2="1" y2="1">
      <stop stop-color="#FB7185"/>
      <stop offset="0.5" stop-color="#EF4444"/>
      <stop offset="1" stop-color="#B91C1C"/>
    </linearGradient>
    <linearGradient id="lobsterHighlight" x1="0" y1="0" x2="1" y2="1">
      <stop stop-color="#FCA5A5"/>
      <stop offset="1" stop-color="#F97316"/>
    </linearGradient>
    <linearGradient id="accent" x1="0" y1="0" x2="1" y2="1">
      <stop stop-color="#38BDF8"/>
      <stop offset="1" stop-color="#22C55E"/>
    </linearGradient>
  </defs>

  <rect width="1200" height="420" rx="28" fill="url(#bg)"/>
  <circle cx="168" cy="108" r="90" fill="#0B1220" opacity="0.52"/>
  <circle cx="1048" cy="318" r="124" fill="#0F172A" opacity="0.38"/>

  <g transform="translate(74 58)">
    <path d="M148 20L270 58V150C270 220 219 283 148 304C77 283 26 220 26 150V58L148 20Z" fill="url(#shieldOuter)"/>
    <path d="M148 51L243 81V148C243 204 204 254 148 274C92 254 53 204 53 148V81L148 51Z" fill="url(#shieldInner)"/>
    <path d="M147 94L174 140H227L184 174L201 227L147 196L93 227L110 174L67 140H120L147 94Z" fill="url(#accent)"/>
  </g>

  <g transform="translate(780 36)">
    <path d="M118 120C88 84 74 51 77 22C117 38 145 68 161 111" stroke="url(#lobsterHighlight)" stroke-width="18" stroke-linecap="round"/>
    <path d="M276 111C292 68 320 38 360 22C363 51 349 84 319 120" stroke="url(#lobsterHighlight)" stroke-width="18" stroke-linecap="round"/>
    <path d="M167 70H207" stroke="#FEE2E2" stroke-width="12" stroke-linecap="round"/>
    <path d="M183 52L191 18" stroke="#FCA5A5" stroke-width="10" stroke-linecap="round"/>
    <path d="M146 139C121 119 101 121 84 145" stroke="#7F1D1D" stroke-width="14" stroke-linecap="round"/>
    <path d="M228 139C253 119 273 121 290 145" stroke="#7F1D1D" stroke-width="14" stroke-linecap="round"/>
    <ellipse cx="188" cy="186" rx="98" ry="122" fill="url(#lobsterMain)"/>
    <ellipse cx="188" cy="176" rx="60" ry="78" fill="url(#lobsterHighlight)" opacity="0.82"/>
    <rect x="169" y="84" width="38" height="56" rx="18" fill="url(#lobsterMain)"/>
    <circle cx="160" cy="166" r="8" fill="#111827"/>
    <circle cx="216" cy="166" r="8" fill="#111827"/>
    <path d="M55 205C88 200 114 210 134 231" stroke="url(#lobsterHighlight)" stroke-width="16" stroke-linecap="round"/>
    <path d="M242 231C262 210 288 200 321 205" stroke="url(#lobsterHighlight)" stroke-width="16" stroke-linecap="round"/>
    <path d="M82 273C111 266 132 274 145 292" stroke="url(#lobsterHighlight)" stroke-width="14" stroke-linecap="round"/>
    <path d="M231 292C244 274 265 266 294 273" stroke="url(#lobsterHighlight)" stroke-width="14" stroke-linecap="round"/>
    <path d="M142 302L112 374" stroke="url(#lobsterHighlight)" stroke-width="14" stroke-linecap="round"/>
    <path d="M188 312V390" stroke="url(#lobsterHighlight)" stroke-width="14" stroke-linecap="round"/>
    <path d="M234 302L264 374" stroke="url(#lobsterHighlight)" stroke-width="14" stroke-linecap="round"/>
  </g>

  <text x="350" y="148" fill="#F8FAFC" font-family="Arial, sans-serif" font-size="54" font-weight="700">OpenClaw Health Monitor</text>
  <text x="350" y="201" fill="#CBD5E1" font-family="Arial, sans-serif" font-size="25">OpenClaw Gateway 的本地监控、诊断与恢复控制台</text>
  <text x="350" y="254" fill="#E2E8F0" font-family="Arial, sans-serif" font-size="22">Gateway · Guardian · Dashboard</text>

  <rect x="350" y="290" width="176" height="46" rx="23" fill="#0F172A" stroke="#1D4ED8"/>
  <text x="391" y="319" fill="#60A5FA" font-family="Arial, sans-serif" font-size="22" font-weight="700">macOS dmg</text>
  <rect x="548" y="290" width="156" height="46" rx="23" fill="#0F172A" stroke="#16A34A"/>
  <text x="587" y="319" fill="#4ADE80" font-family="Arial, sans-serif" font-size="22" font-weight="700">local ops</text>
</svg>
